PathFileType	4	(X/Y/Z)	C:/Users/opensim2020/Desktop/walking_exp_matlab/subject06_walking11_run.trc																																																																																																																																								
DataRate	CameraRate	NumFrames	NumMarkers	Units	OrigDataRate	OrigDataStartFrame	OrigNumFrames																																																																																																																																				
100	100	5	46	mm	100	278	106																																																																																																																																				
Frame#	Time	LKNE			RKNE			RFRM			RWRA			RWRB			RELB			RUPA			RSHO			LWRA			RFIN			RFHD			CLAV			RASI			RTHI			LSHO			LTHI			RBHD			C7			LTIB			LANK			LTOE			LBHD			RTIB			RBAK			LHEE			RANK			STRN			RHEE			RTOE			T10			LUPA			LFHD			LPSI			RPSI			LASI			LFRM			LWRB			LFIN			LELB			*39			*40			*41			*42			*43			*44			*45		
		X1	Y1	Z1	X2	Y2	Z2	X3	Y3	Z3	X4	Y4	Z4	X5	Y5	Z5	X6	Y6	Z6	X7	Y7	Z7	X8	Y8	Z8	X9	Y9	Z9	X10	Y10	Z10	X11	Y11	Z11	X12	Y12	Z12	X13	Y13	Z13	X14	Y14	Z14	X15	Y15	Z15	X16	Y16	Z16	X17	Y17	Z17	X18	Y18	Z18	X19	Y19	Z19	X20	Y20	Z20	X21	Y21	Z21	X22	Y22	Z22	X23	Y23	Z23	X24	Y24	Z24	X25	Y25	Z25	X26	Y26	Z26	X27	Y27	Z27	X28	Y28	Z28	X29	Y29	Z29	X30	Y30	Z30	X31	Y31	Z31	X32	Y32	Z32	X33	Y33	Z33	X34	Y34	Z34	X35	Y35	Z35	X36	Y36	Z36	X37	Y37	Z37	X38	Y38	Z38	X39	Y39	Z39	X40	Y40	Z40	X41	Y41	Z41	X42	Y42	Z42	X43	Y43	Z43	X44	Y44	Z44	X45	Y45	Z45	X46	Y46	Z46
																																																																																																																																											
93	0.92	63.0438	523.66205	-1921.63867	298.74518	475.67334	-1671.62573	425.34555	1084.17944	-1808.1178	324.22855	1157.23901	-1874.18054	337.33743	1098.60303	-1903.7533	485.43661	1099.18274	-1728.13306	468.56476	1200.91028	-1720.72791	362.74512	1379.16785	-1772.59741	2.28712	1168.17139	-1777.83276	300.11728	1151.38306	-1956.86731	279.48853	1635.66333	-1827.6012	197.85498	1352.62646	-1809.77722	301.29425	925.31189	-1788.8678	333.73981	601.11285	-1686.04553	54.59684	1404.92432	-1719.40759	28.23927	654.19928	-1835.60107	290.98947	1574.66443	-1700.77759	213.87579	1430.79907	-1699.1925	47.24343	354.40085	-1758.37524	65.57597	232.87405	-1633.19861	57.92999	112.70466	-1712.85864	163.35568	1581.65649	-1683.71021	273.92087	261.34583	-1513.17041	286.31143	1263.13367	-1624.22229	111.54823	243.99527	-1591.45007	217.74542	123.8075	-1394.39441	181.59198	1171.96301	-1839.396	181.40038	135.05327	-1345.53735	180.60994	30.22674	-1509.98755	198.38388	1107.42688	-1647.43604	-52.46805	1269.01758	-1624.78369	147.92656	1648.95154	-1810.98987	105.652	975.82629	-1640.81738	275.40698	979.97375	-1643.854	84.23328	932.40399	-1794.71887	-75.94329	1130.37463	-1682.27185	-20.3392	1101.28223	-1780.02246	15.96091	1122.09412	-1862.80786	-94.30293	1190.76245	-1571.07202	NaN	NaN	NaN	220.6646	1676.37988	-1715.45313	NaN	NaN	NaN	NaN	NaN	NaN	NaN	NaN	NaN	NaN	NaN	NaN	NaN	NaN	NaN
94	0.93	64.20051	539.29132	-1969.51306	298.9545	484.49588	-1695.51404	420.02747	1096.19995	-1856.26428	318.66699	1174.07422	-1915.58215	328.91425	1116.59399	-1947.88782	483.90213	1106.77771	-1778.57092	468.39633	1208.64001	-1769.30493	361.42151	1387.7583	-1814.59619	-0.69405	1176.88074	-1809.32129	291.26141	1172.32886	-1997.33472	278.59735	1643.18823	-1866.85486	196.68155	1360.58264	-1847.67175	300.69299	931.62738	-1831.95886	332.78741	608.61365	-1718.45642	55.75672	1412.91943	-1754.71375	29.09205	667.42871	-1880.67517	290.37064	1582.6604	-1739.79468	214.73737	1438.25781	-1737.64551	49.35847	354.02014	-1822.18738	69.72406	220.85092	-1708.52405	65.50331	106.26999	-1797.93176	162.89514	1589.80847	-1722.53259	276.18121	275.07971	-1528.39978	290.00827	1270.41016	-1665.56628	115.29038	229.20543	-1665.87952	222.40982	139.50598	-1407.19336	179.67232	1180.34009	-1878.60925	186.48935	152.88272	-1360.97241	180.0793	30.06316	-1509.64636	201.22775	1114.46008	-1687.89929	-49.82669	1279.60742	-1656.7002	147.3049	1656.66907	-1849.93896	107.14106	984.40198	-1682.2605	276.27426	985.84155	-1686.52148	84.56557	942.75769	-1836.93945	-76.37778	1140.95007	-1710.97473	-23.39566	1110.09058	-1810.08545	11.49098	1129.42957	-1894.11279	-90.81976	1202.61621	-1600.00708	NaN	NaN	NaN	220.18886	1684.24438	-1754.48901	NaN	NaN	NaN	NaN	NaN	NaN	NaN	NaN	NaN	NaN	NaN	NaN	NaN	NaN	NaN
95	0.94	65.21519	553.49078	-2015.23193	299.18329	494.66556	-1722.25	415.108	1108.6582	-1903.18848	313.71631	1190.78528	-1956.3938	321.25394	1134.29968	-1990.62708	482.36996	1115.36951	-1828.07507	467.58954	1217.40356	-1817.3916	359.94257	1396.91638	-1856.34448	-3.06412	1186.07312	-1841.9231	283.40671	1192.54077	-2036.66357	277.59512	1650.99377	-1906.15112	195.42802	1369.04211	-1885.6886	300.44513	939.12408	-1875.56421	331.746	617.23468	-1752.28723	56.79155	1421.47168	-1790.64856	30.20045	680.97888	-1925.38855	290.06918	1591.14441	-1779.14026	215.52924	1446.19299	-1776.15967	52.29904	353.07172	-1884.89197	74.85048	209.52365	-1784.33105	74.62114	100.10184	-1881.54333	162.46913	1598.39282	-1761.10657	278.64288	290.34225	-1546.97278	294.05591	1278.52344	-1707.21704	120.35987	215.62767	-1741.15247	227.63864	155.7151	-1425.91052	178.39085	1189.39392	-1917.84167	191.93544	171.22318	-1381.65259	180.20203	29.7978	-1509.0907	204.34953	1122.19275	-1728.53992	-47.14964	1290.6449	-1689.69458	146.40286	1664.7876	-1888.79431	108.71667	993.37781	-1724.44531	276.84229	992.40778	-1729.97437	85.26296	953.66217	-1879.28333	-76.23203	1151.677	-1741.08875	-25.87103	1119.37244	-1841.68958	8.26067	1137.26367	-1926.00806	-87.25378	1214.81091	-1630.41113	NaN	NaN	NaN	219.43825	1692.84973	-1793.82764	NaN	NaN	NaN	NaN	NaN	NaN	NaN	NaN	NaN	NaN	NaN	NaN	NaN	NaN	NaN
96	0.95	65.98511	565.87469	-2059.26465	299.03116	505.16434	-1751.45483	410.96362	1121.26794	-1949.09021	309.55322	1206.7572	-1996.30115	314.37238	1151.14258	-2032.20923	481.50995	1124.63123	-1876.80676	466.13797	1226.72192	-1864.78735	358.42072	1406.04822	-1897.65674	-4.81306	1195.64087	-1875.5448	276.48138	1211.49414	-2075.17139	276.6134	1658.7937	-1945.58398	194.24237	1377.63782	-1923.90137	300.41736	947.58636	-1919.66846	330.98898	626.24084	-1787.00415	57.75922	1430.13513	-1827.21265	30.9858	694.3421	-1969.89185	289.32919	1599.9812	-1818.26953	216.18457	1454.26721	-1814.78137	55.85789	351.46506	-1946.79407	81.57687	198.95801	-1860.53247	86.01003	94.25985	-1964.18481	161.513	1607.56555	-1800.05933	281.72299	305.08411	-1569.87097	297.32407	1286.66626	-1748.90613	126.43445	203.54016	-1816.71338	232.93512	169.01512	-1448.88306	177.28775	1198.3313	-1956.77966	197.731	189.62103	-1407.78662	180.75851	29.83008	-1508.26428	207.85219	1130.16748	-1769.16418	-44.50503	1301.69336	-1723.65112	145.60423	1672.81274	-1928.08154	110.23585	1002.58966	-1767.48511	276.77805	999.23132	-1774.31128	85.93638	964.82141	-1921.92004	-75.90842	1162.33911	-1772.76135	-27.58893	1128.95239	-1873.99951	5.24593	1145.71289	-1959.37354	-83.71794	1226.63892	-1662.11475	NaN	NaN	NaN	218.74242	1701.59241	-1833.48401	NaN	NaN	NaN	NaN	NaN	NaN	NaN	NaN	NaN	NaN	NaN	NaN	NaN	NaN	NaN
97	0.96	66.1526	575.97797	-2102.03271	298.65634	514.95319	-1781.87561	407.41769	1133.36804	-1993.83264	306.21478	1221.72888	-2035.81189	308.4906	1166.81702	-2072.91089	480.83157	1133.80981	-1924.33142	464.57193	1236.28247	-1911.09546	356.60757	1415.08093	-1938.58875	-5.83138	1204.82019	-1909.95093	270.44385	1228.90405	-2113.18481	275.43253	1665.74121	-1984.99158	193.14314	1385.83667	-1962.03003	300.10818	956.3584	-1963.99756	330.47452	634.75098	-1822.22156	58.57605	1438.20764	-1864.1958	31.56781	706.59387	-2013.58081	288.58286	1608.50525	-1857.2428	216.58456	1461.91589	-1853.63269	59.67774	349.14133	-2007.74976	88.51734	189.35168	-1936.3291	98.91219	89.26984	-2045.78711	160.67763	1616.30225	-1838.92078	286.13794	318.60382	-1596.43604	300.06589	1294.45374	-1790.70972	132.91571	192.79735	-1892.27209	237.93758	181.5554	-1473.60339	176.08057	1207.31494	-1996.51831	203.66975	207.65605	-1436.1709	181.66936	35.45844	-1513.57068	211.3566	1138.05872	-1810.11035	-41.9544	1312.151	-1758.38782	144.84019	1680.00354	-1967.33154	111.89587	1011.94861	-1810.86157	277.06433	1005.86224	-1819.17139	86.59659	975.4342	-1964.5166	-75.22003	1172.56177	-1805.54919	-29.11305	1138.47827	-1907.69885	2.88219	1154.37012	-1993.56421	-80.48176	1237.6593	-1695.08594	NaN	NaN	NaN	217.96065	1710.09106	-1873.41272	NaN	NaN	NaN	NaN	NaN	NaN	NaN	NaN	NaN	NaN	NaN	NaN	NaN	NaN	NaN
